<svg width="100" height="100" viewBox="0 0 100 100" xmlns="http://www.w3.org/2000/svg">
  <!-- Background circle -->
  <circle cx="50" cy="50" r="45" fill="#FF5252" stroke="#ffffff" stroke-width="2"/>
  
  <!-- Bell shape -->
  <path d="M35 45 C35 35, 45 25, 50 25 C55 25, 65 35, 65 45 L65 55 C65 60, 70 65, 75 65 L25 65 C30 65, 35 60, 35 55 Z" fill="#ffffff" stroke="#FF5252" stroke-width="1.5"/>
  
  <!-- Bell clapper -->
  <circle cx="50" cy="68" r="3" fill="#FF5252"/>
  
  <!-- Bell top -->
  <rect x="48" y="20" width="4" height="8" fill="#ffffff"/>
  <rect x="46" y="18" width="8" height="4" fill="#ffffff" rx="2"/>
  
  <!-- Sound waves -->
  <path d="M20 35 Q15 40, 20 45" fill="none" stroke="#ffffff" stroke-width="2" stroke-linecap="round"/>
  <path d="M15 30 Q8 40, 15 50" fill="none" stroke="#ffffff" stroke-width="2" stroke-linecap="round"/>
  
  <path d="M80 35 Q85 40, 80 45" fill="none" stroke="#ffffff" stroke-width="2" stroke-linecap="round"/>
  <path d="M85 30 Q92 40, 85 50" fill="none" stroke="#ffffff" stroke-width="2" stroke-linecap="round"/>
  
  <!-- Clock/Timer elements -->
  <circle cx="75" cy="75" r="8" fill="#ffffff" stroke="#FF5252" stroke-width="1.5"/>
  <line x1="75" y1="75" x2="75" y2="70" stroke="#FF5252" stroke-width="1.5"/>
  <line x1="75" y1="75" x2="78" y2="78" stroke="#FF5252" stroke-width="1.5"/>
  
  <!-- Exclamation mark -->
  <circle cx="25" cy="75" r="8" fill="#ffffff" stroke="#FF5252" stroke-width="1.5"/>
  <line x1="25" y1="70" x2="25" y2="76" stroke="#FF5252" stroke-width="2"/>
  <circle cx="25" cy="79" r="1" fill="#FF5252"/>
</svg>