<svg width="100" height="100" viewBox="0 0 100 100" xmlns="http://www.w3.org/2000/svg">
  <!-- Background circle -->
  <circle cx="50" cy="50" r="45" fill="#FF5252" stroke="#ffffff" stroke-width="2"/>
  
  <!-- Warehouse/Storage building -->
  <rect x="20" y="40" width="60" height="35" fill="#ffffff" stroke="#FF5252" stroke-width="1.5"/>
  <polygon points="20,40 50,25 80,40" fill="#ffffff" stroke="#FF5252" stroke-width="1.5"/>
  
  <!-- Boxes/Inventory items -->
  <rect x="25" y="45" width="8" height="8" fill="#FF5252"/>
  <rect x="35" y="45" width="8" height="8" fill="#FF5252"/>
  <rect x="45" y="45" width="8" height="8" fill="#FF5252"/>
  <rect x="55" y="45" width="8" height="8" fill="#FF5252"/>
  <rect x="65" y="45" width="8" height="8" fill="#FF5252"/>
  
  <rect x="25" y="55" width="8" height="8" fill="#FF5252"/>
  <rect x="35" y="55" width="8" height="8" fill="#FF5252"/>
  <rect x="45" y="55" width="8" height="8" fill="#FF5252"/>
  <rect x="55" y="55" width="8" height="8" fill="#FF5252"/>
  <rect x="65" y="55" width="8" height="8" fill="#FF5252"/>
  
  <rect x="25" y="65" width="8" height="8" fill="#FF5252"/>
  <rect x="35" y="65" width="8" height="8" fill="#FF5252"/>
  <rect x="45" y="65" width="8" height="8" fill="#FF5252"/>
  <rect x="55" y="65" width="8" height="8" fill="#FF5252"/>
  <rect x="65" y="65" width="8" height="8" fill="#FF5252"/>
  
  <!-- Door -->
  <rect x="47" y="65" width="6" height="10" fill="#ffffff"/>
  
  <!-- Clipboard/checklist icon -->
  <rect x="75" y="20" width="12" height="15" fill="#ffffff" stroke="#FF5252" stroke-width="1"/>
  <rect x="76" y="18" width="10" height="2" fill="#FF5252"/>
  <line x1="77" y1="23" x2="85" y2="23" stroke="#FF5252" stroke-width="0.8"/>
  <line x1="77" y1="26" x2="85" y2="26" stroke="#FF5252" stroke-width="0.8"/>
  <line x1="77" y1="29" x2="85" y2="29" stroke="#FF5252" stroke-width="0.8"/>
  <line x1="77" y1="32" x2="85" y2="32" stroke="#FF5252" stroke-width="0.8"/>
</svg>