<svg width="100" height="100" viewBox="0 0 100 100" xmlns="http://www.w3.org/2000/svg">
  <!-- Background circle -->
  <circle cx="50" cy="50" r="45" fill="#FF5252" stroke="#ffffff" stroke-width="2"/>
  
  <!-- Truck/Delivery vehicle -->
  <rect x="15" y="45" width="35" height="20" fill="#ffffff" stroke="#FF5252" stroke-width="1.5"/>
  <rect x="50" y="50" width="15" height="15" fill="#ffffff" stroke="#FF5252" stroke-width="1.5"/>
  
  <!-- Truck cabin -->
  <rect x="15" y="40" width="12" height="15" fill="#ffffff" stroke="#FF5252" stroke-width="1.5"/>
  
  <!-- Wheels -->
  <circle cx="22" cy="70" r="4" fill="#FF5252"/>
  <circle cx="42" cy="70" r="4" fill="#FF5252"/>
  <circle cx="57" cy="70" r="4" fill="#FF5252"/>
  
  <!-- Boxes in truck -->
  <rect x="30" y="48" width="6" height="6" fill="#FF5252"/>
  <rect x="38" y="48" width="6" height="6" fill="#FF5252"/>
  <rect x="30" y="56" width="6" height="6" fill="#FF5252"/>
  <rect x="38" y="56" width="6" height="6" fill="#FF5252"/>
  
  <!-- Supplier/Person icon -->
  <circle cx="75" cy="30" r="6" fill="#ffffff"/>
  <rect x="70" y="36" width="10" height="12" fill="#ffffff" rx="2"/>
  
  <!-- Document/Order list -->
  <rect x="68" y="52" width="14" height="18" fill="#ffffff" stroke="#FF5252" stroke-width="1"/>
  <line x1="70" y1="56" x2="80" y2="56" stroke="#FF5252" stroke-width="0.8"/>
  <line x1="70" y1="59" x2="80" y2="59" stroke="#FF5252" stroke-width="0.8"/>
  <line x1="70" y1="62" x2="80" y2="62" stroke="#FF5252" stroke-width="0.8"/>
  <line x1="70" y1="65" x2="80" y2="65" stroke="#FF5252" stroke-width="0.8"/>
  
  <!-- Connection lines -->
  <line x1="65" y1="35" x2="55" y2="45" stroke="#ffffff" stroke-width="2" stroke-dasharray="2,2"/>
</svg>